<?xml version="1.0" encoding="utf-8" standalone="no"?>
<!DOCTYPE svg PUBLIC "-//W3C//DTD SVG 1.1//EN"
  "http://www.w3.org/Graphics/SVG/1.1/DTD/svg11.dtd">
<svg xmlns:xlink="http://www.w3.org/1999/xlink" width="259.02pt" height="46.44pt" viewBox="0 0 259.02 46.44" xmlns="http://www.w3.org/2000/svg" version="1.1">
 <metadata>
  <rdf:RDF xmlns:dc="http://purl.org/dc/elements/1.1/" xmlns:cc="http://creativecommons.org/ns#" xmlns:rdf="http://www.w3.org/1999/02/22-rdf-syntax-ns#">
   <cc:Work>
    <dc:type rdf:resource="http://purl.org/dc/dcmitype/StillImage"/>
    <dc:format>image/svg+xml</dc:format>
    <dc:creator>
     <cc:Agent>
      <dc:title>Matplotlib v3.10.8, https://matplotlib.org/</dc:title>
     </cc:Agent>
    </dc:creator>
   </cc:Work>
  </rdf:RDF>
 </metadata>
 <defs>
  <style type="text/css">*{stroke-linejoin: round; stroke-linecap: butt}</style>
 </defs>
 <g id="figure_1">
  <g id="patch_1">
   <path d="M 0 46.44 
L 259.02 46.44 
L 259.02 0 
L 0 0 
L 0 46.44 
z
" style="fill: none"/>
  </g>
  <g id="text_1">
   <!-- $R_{jt} = \frac{P_{jt} + D_{jt} - P_{j,t-1}}{P_{j,t-1}} = \frac{P_{jt} + D_{jt}}{P_{j,t-1}} - 1$ -->
   <g transform="translate(7.2 28.26) scale(0.18 -0.18)">
    <defs>
     <path id="DejaVuSans-Oblique-52" d="M 1613 4147 
L 1294 2491 
L 2106 2491 
Q 2584 2491 2879 2755 
Q 3175 3019 3175 3444 
Q 3175 3784 2976 3965 
Q 2778 4147 2406 4147 
L 1613 4147 
z
M 2772 2241 
Q 2972 2194 3105 2009 
Q 3238 1825 3413 1275 
L 3809 0 
L 3144 0 
L 2778 1197 
Q 2638 1659 2453 1815 
Q 2269 1972 1888 1972 
L 1191 1972 
L 806 0 
L 172 0 
L 1081 4666 
L 2503 4666 
Q 3150 4666 3495 4373 
Q 3841 4081 3841 3531 
Q 3841 3044 3547 2687 
Q 3253 2331 2772 2241 
z
" transform="scale(0.015625)"/>
     <path id="DejaVuSans-Oblique-6a" d="M 928 3500 
L 1503 3500 
L 813 -63 
L 809 -78 
Q 694 -675 544 -897 
Q 403 -1106 132 -1218 
Q -138 -1331 -506 -1331 
L -722 -1331 
L -628 -844 
L -481 -844 
Q -144 -844 -1 -703 
Q 141 -563 238 -63 
L 928 3500 
z
M 1197 4863 
L 1772 4863 
L 1631 4134 
L 1056 4134 
L 1197 4863 
z
" transform="scale(0.015625)"/>
     <path id="DejaVuSans-Oblique-74" d="M 2706 3500 
L 2619 3053 
L 1472 3053 
L 1100 1153 
Q 1081 1047 1072 975 
Q 1063 903 1063 863 
Q 1063 663 1183 572 
Q 1303 481 1569 481 
L 2150 481 
L 2053 0 
L 1503 0 
Q 991 0 739 200 
Q 488 400 488 806 
Q 488 878 497 964 
Q 506 1050 525 1153 
L 897 3053 
L 409 3053 
L 500 3500 
L 978 3500 
L 1172 4494 
L 1747 4494 
L 1556 3500 
L 2706 3500 
z
" transform="scale(0.015625)"/>
     <path id="DejaVuSans-3d" d="M 678 2906 
L 4684 2906 
L 4684 2381 
L 678 2381 
L 678 2906 
z
M 678 1631 
L 4684 1631 
L 4684 1100 
L 678 1100 
L 678 1631 
z
" transform="scale(0.015625)"/>
     <path id="DejaVuSans-Oblique-50" d="M 1081 4666 
L 2541 4666 
Q 3178 4666 3512 4369 
Q 3847 4072 3847 3500 
Q 3847 2731 3353 2303 
Q 2859 1875 1966 1875 
L 1172 1875 
L 806 0 
L 172 0 
L 1081 4666 
z
M 1613 4147 
L 1275 2394 
L 2069 2394 
Q 2606 2394 2893 2669 
Q 3181 2944 3181 3456 
Q 3181 3784 2986 3965 
Q 2791 4147 2438 4147 
L 1613 4147 
z
" transform="scale(0.015625)"/>
     <path id="DejaVuSans-2b" d="M 2944 4013 
L 2944 2272 
L 4684 2272 
L 4684 1741 
L 2944 1741 
L 2944 0 
L 2419 0 
L 2419 1741 
L 678 1741 
L 678 2272 
L 2419 2272 
L 2419 4013 
L 2944 4013 
z
" transform="scale(0.015625)"/>
     <path id="DejaVuSans-Oblique-44" d="M 1081 4666 
L 2438 4666 
Q 3519 4666 4070 4208 
Q 4622 3750 4622 2847 
Q 4622 2250 4412 1698 
Q 4203 1147 3834 769 
Q 3463 381 2891 190 
Q 2319 0 1538 0 
L 172 0 
L 1081 4666 
z
M 1613 4147 
L 909 519 
L 1734 519 
Q 2794 519 3375 1128 
Q 3956 1738 3956 2847 
Q 3956 3519 3581 3833 
Q 3206 4147 2406 4147 
L 1613 4147 
z
" transform="scale(0.015625)"/>
     <path id="DejaVuSans-2212" d="M 678 2272 
L 4684 2272 
L 4684 1741 
L 678 1741 
L 678 2272 
z
" transform="scale(0.015625)"/>
     <path id="DejaVuSans-2c" d="M 750 794 
L 1409 794 
L 1409 256 
L 897 -744 
L 494 -744 
L 750 256 
L 750 794 
z
" transform="scale(0.015625)"/>
     <path id="DejaVuSans-31" d="M 794 531 
L 1825 531 
L 1825 4091 
L 703 3866 
L 703 4441 
L 1819 4666 
L 2450 4666 
L 2450 531 
L 3481 531 
L 3481 0 
L 794 0 
L 794 531 
z
" transform="scale(0.015625)"/>
    </defs>
    <use xlink:href="#DejaVuSans-Oblique-52" transform="translate(0 0.493906)"/>
    <use xlink:href="#DejaVuSans-Oblique-6a" transform="translate(69.482422 -15.912344) scale(0.7)"/>
    <use xlink:href="#DejaVuSans-Oblique-74" transform="translate(88.930664 -15.912344) scale(0.7)"/>
    <use xlink:href="#DejaVuSans-3d" transform="translate(138.59375 0.493906)"/>
    <use xlink:href="#DejaVuSans-Oblique-50" transform="translate(241.865234 65.965625) scale(0.7)"/>
    <use xlink:href="#DejaVuSans-Oblique-6a" transform="translate(284.077148 54.48125) scale(0.49)"/>
    <use xlink:href="#DejaVuSans-Oblique-74" transform="translate(297.690918 54.48125) scale(0.49)"/>
    <use xlink:href="#DejaVuSans-2b" transform="translate(332.455078 65.965625) scale(0.7)"/>
    <use xlink:href="#DejaVuSans-Oblique-44" transform="translate(404.745117 65.965625) scale(0.7)"/>
    <use xlink:href="#DejaVuSans-Oblique-6a" transform="translate(458.646484 54.48125) scale(0.49)"/>
    <use xlink:href="#DejaVuSans-Oblique-74" transform="translate(472.260254 54.48125) scale(0.49)"/>
    <use xlink:href="#DejaVuSans-2212" transform="translate(507.024414 65.965625) scale(0.7)"/>
    <use xlink:href="#DejaVuSans-Oblique-50" transform="translate(579.314453 65.965625) scale(0.7)"/>
    <use xlink:href="#DejaVuSans-Oblique-6a" transform="translate(621.526367 54.48125) scale(0.49)"/>
    <use xlink:href="#DejaVuSans-2c" transform="translate(635.140137 54.48125) scale(0.49)"/>
    <use xlink:href="#DejaVuSans-Oblique-74" transform="translate(660.262207 54.48125) scale(0.49)"/>
    <use xlink:href="#DejaVuSans-2212" transform="translate(689.020996 54.48125) scale(0.49)"/>
    <use xlink:href="#DejaVuSans-31" transform="translate(739.624023 54.48125) scale(0.49)"/>
    <use xlink:href="#DejaVuSans-Oblique-50" transform="translate(410.865234 -37.993594) scale(0.7)"/>
    <use xlink:href="#DejaVuSans-Oblique-6a" transform="translate(453.077148 -49.477969) scale(0.49)"/>
    <use xlink:href="#DejaVuSans-2c" transform="translate(466.690918 -49.477969) scale(0.49)"/>
    <use xlink:href="#DejaVuSans-Oblique-74" transform="translate(491.812988 -49.477969) scale(0.49)"/>
    <use xlink:href="#DejaVuSans-2212" transform="translate(520.571777 -49.477969) scale(0.49)"/>
    <use xlink:href="#DejaVuSans-31" transform="translate(571.174805 -49.477969) scale(0.49)"/>
    <use xlink:href="#DejaVuSans-3d" transform="translate(804.695801 0.493906)"/>
    <use xlink:href="#DejaVuSans-Oblique-50" transform="translate(907.967285 65.965625) scale(0.7)"/>
    <use xlink:href="#DejaVuSans-Oblique-6a" transform="translate(950.179199 54.48125) scale(0.49)"/>
    <use xlink:href="#DejaVuSans-Oblique-74" transform="translate(963.792969 54.48125) scale(0.49)"/>
    <use xlink:href="#DejaVuSans-2b" transform="translate(998.557129 65.965625) scale(0.7)"/>
    <use xlink:href="#DejaVuSans-Oblique-44" transform="translate(1070.847168 65.965625) scale(0.7)"/>
    <use xlink:href="#DejaVuSans-Oblique-6a" transform="translate(1124.748535 54.48125) scale(0.49)"/>
    <use xlink:href="#DejaVuSans-Oblique-74" transform="translate(1138.362305 54.48125) scale(0.49)"/>
    <use xlink:href="#DejaVuSans-Oblique-50" transform="translate(936.967285 -37.993594) scale(0.7)"/>
    <use xlink:href="#DejaVuSans-Oblique-6a" transform="translate(979.179199 -49.477969) scale(0.49)"/>
    <use xlink:href="#DejaVuSans-2c" transform="translate(992.792969 -49.477969) scale(0.49)"/>
    <use xlink:href="#DejaVuSans-Oblique-74" transform="translate(1017.915039 -49.477969) scale(0.49)"/>
    <use xlink:href="#DejaVuSans-2212" transform="translate(1046.673828 -49.477969) scale(0.49)"/>
    <use xlink:href="#DejaVuSans-31" transform="translate(1097.276855 -49.477969) scale(0.49)"/>
    <use xlink:href="#DejaVuSans-2212" transform="translate(1191.471191 0.493906)"/>
    <use xlink:href="#DejaVuSans-31" transform="translate(1294.742676 0.493906)"/>
    <path d="M 241.865234 19.290781 
L 241.865234 25.540781 
L 772.713379 25.540781 
L 772.713379 19.290781 
L 241.865234 19.290781 
z
"/>
    <path d="M 907.967285 19.290781 
L 907.967285 25.540781 
L 1159.48877 25.540781 
L 1159.48877 19.290781 
L 907.967285 19.290781 
z
"/>
   </g>
  </g>
 </g>
</svg>
