<svg xmlns="http://www.w3.org/2000/svg" width="1712" height="720" viewBox="0 0 1712 720">
  <rect width="1712" height="720" fill="white"/>
  <g font-family="Times New Roman" font-size="38" fill="black">
    <rect x="606" y="290" width="500" height="140" fill="white" stroke="black" stroke-width="6"/>
    <text x="856" y="350" text-anchor="middle" font-weight="bold" font-size="42">Future events &amp;</text>
    <text x="856" y="400" text-anchor="middle" font-weight="bold" font-size="42">pengakuan akuntansi</text>
    <rect x="100" y="60" width="440" height="120" fill="white" stroke="black" stroke-width="4"/>
    <text x="320" y="110" text-anchor="middle" font-weight="bold">Persepsi peristiwa lampau</text>
    <text x="320" y="155" text-anchor="middle" font-style="italic" font-size="34">one-event vs two-event view</text>
    <rect x="1172" y="60" width="440" height="120" fill="white" stroke="black" stroke-width="4"/>
    <text x="1392" y="110" text-anchor="middle" font-weight="bold">Sifat probabilistik</text>
    <text x="1392" y="155" text-anchor="middle" font-style="italic" font-size="34">probable vs remote (SFAS 5)</text>
    <rect x="100" y="540" width="440" height="120" fill="white" stroke="black" stroke-width="4"/>
    <text x="320" y="590" text-anchor="middle" font-weight="bold">Management intent</text>
    <text x="320" y="635" text-anchor="middle" font-style="italic" font-size="34">ditolak: merusak komparabilitas</text>
    <rect x="1172" y="540" width="440" height="120" fill="white" stroke="black" stroke-width="4"/>
    <text x="1392" y="590" text-anchor="middle" font-weight="bold">Market values (Beaver)</text>
    <text x="1392" y="635" text-anchor="middle" font-style="italic" font-size="34">kaya informasi; rapuh jika thin</text>
    <rect x="60" y="300" width="380" height="120" fill="white" stroke="black" stroke-width="4"/>
    <text x="250" y="350" text-anchor="middle" font-weight="bold">Konservatisme</text>
    <text x="250" y="395" text-anchor="middle" font-style="italic" font-size="34">keunggulan kabar buruk</text>
    <rect x="1240" y="300" width="420" height="120" fill="white" stroke="black" stroke-width="4"/>
    <text x="1450" y="350" text-anchor="middle" font-weight="bold" font-size="36">Kondisi ekonomi &amp; hukum</text>
    <text x="1450" y="398" text-anchor="middle" font-style="italic" font-size="30">prediksi hanya jika berbukti</text>
    <line x1="540" y1="150" x2="700" y2="290" stroke="black" stroke-width="4"/>
    <line x1="1172" y1="150" x2="1012" y2="290" stroke="black" stroke-width="4"/>
    <line x1="540" y1="580" x2="700" y2="430" stroke="black" stroke-width="4"/>
    <line x1="1172" y1="580" x2="1012" y2="430" stroke="black" stroke-width="4"/>
    <line x1="440" y1="360" x2="606" y2="360" stroke="black" stroke-width="4"/>
    <line x1="1106" y1="360" x2="1240" y2="360" stroke="black" stroke-width="4"/>
  </g>
</svg>
